<?xml version="1.0" encoding="UTF-8"?>
<svg id="Camada_1" data-name="Camada 1" xmlns="http://www.w3.org/2000/svg" viewBox="0 0 1000 350">
  <defs>
    <style>
      .cls-1 {
        fill: #fff;
      }
    </style>
  </defs>
  <g>
    <path class="cls-1" d="M582.31,238.79c-.42,6.97,3.7,12.06,10.53,12.06,4.74,0,9.9-2.44,12.9-4.74l-.84,4.46c-3,1.95-7.32,3.98-12.48,3.98-8.65,0-14.16-6.21-14.16-14.99,0-10.95,8.79-19.95,19.32-19.95,8.3,0,13.74,6,13.74,13.95,0,1.95-.49,4.39-.77,5.23h-28.25ZM582.8,235.44h24.41c.14-.63.21-1.33.21-1.95,0-6.28-4.11-10.32-10.04-10.32-6.83,0-13.18,5.3-14.58,12.27Z"/>
    <path class="cls-1" d="M624.58,224.91c2.3-3.56,5.65-5.3,9.97-5.3,5.09,0,8.79,2.3,9.55,6.83,2.3-4.67,6.28-6.83,11.44-6.83,6.63,0,10.95,4.67,9.56,12.62l-3.77,21.62h-3.98l3.7-20.85c1.05-6.21-1.88-9.48-6.76-9.48s-9.21,3.35-10.25,9.48l-3.7,20.85h-3.98l3.77-20.85c1.05-6.21-1.88-9.48-6.83-9.48s-8.86,3.14-10.04,9l-3.77,21.34h-3.98l5.93-33.55h3.98l-.84,4.6Z"/>
    <path class="cls-1" d="M675.42,253.85h-3.98l8.51-48.12h3.98l-4.04,22.04c3.21-5.09,8.51-8.16,14.71-8.16,8.23,0,14.02,6.35,14.02,14.99,0,10.81-8.93,19.95-19.53,19.95-6.14,0-10.81-3.83-12.27-9l-1.39,8.3ZM688.88,250.64c8.16,0,15.48-7.18,15.48-15.69,0-6.42-4.25-11.44-10.74-11.44-8.23,0-15.48,7.18-15.48,15.69,0,6.42,4.25,11.44,10.74,11.44Z"/>
    <path class="cls-1" d="M741.4,253.85l1.46-7.6c-3.28,5.16-8.51,8.3-14.44,8.3-8.51,0-14.16-6.49-14.16-14.99,0-10.67,8.93-19.95,19.18-19.95,6.49,0,10.88,3.7,12.41,8.93l1.46-8.23h3.91l-5.86,33.55h-3.98ZM733.73,223.51c-7.88,0-15.34,7.18-15.34,15.69,0,6.49,4.25,11.44,10.88,11.44,8.02,0,15.27-7.18,15.27-15.76,0-6.35-4.19-11.37-10.81-11.37Z"/>
    <path class="cls-1" d="M759.89,253.85h-3.91l8.51-48.12h3.91l-8.51,48.12Z"/>
    <path class="cls-1" d="M798.17,253.85l1.46-7.6c-3.28,5.16-8.51,8.3-14.44,8.3-8.51,0-14.16-6.49-14.16-14.99,0-10.67,8.93-19.95,19.18-19.95,6.49,0,10.88,3.7,12.41,8.93l1.46-8.23h3.91l-5.86,33.55h-3.98ZM790.5,223.51c-7.88,0-15.34,7.18-15.34,15.69,0,6.49,4.25,11.44,10.88,11.44,8.02,0,15.27-7.18,15.27-15.76,0-6.35-4.19-11.37-10.81-11.37Z"/>
    <path class="cls-1" d="M849.65,220.3l-5.51,31.87c-1.74,10.11-9.35,16.67-18.9,16.67-4.95,0-9.48-1.67-11.65-3.14l.84-4.46c2.16,1.95,6.42,3.84,11.09,3.84,7.04,0,13.25-5.23,14.51-12.62l1.25-6.56c-3.21,4.88-8.23,7.67-14.23,7.67-8.09,0-13.81-5.86-13.81-14.37,0-10.39,8.79-19.6,19.04-19.6,6.07,0,10.6,3.63,12.14,8.65l1.32-7.95h3.91ZM832.49,223.65c-7.95,0-15,6.7-15,15.06,0,6.35,4.12,11.02,10.39,11.02,8.09,0,15.06-6.83,15.06-15.2,0-6.21-4.12-10.88-10.46-10.88Z"/>
    <path class="cls-1" d="M858.86,238.79c-.42,6.97,3.7,12.06,10.53,12.06,4.74,0,9.9-2.44,12.9-4.74l-.84,4.46c-3,1.95-7.32,3.98-12.48,3.98-8.65,0-14.16-6.21-14.16-14.99,0-10.95,8.79-19.95,19.32-19.95,8.3,0,13.74,6,13.74,13.95,0,1.95-.49,4.39-.77,5.23h-28.25ZM859.35,235.44h24.41c.14-.63.21-1.33.21-1.95,0-6.28-4.11-10.32-10.04-10.32-6.83,0-13.18,5.3-14.58,12.27Z"/>
    <path class="cls-1" d="M900.98,225.74c2.51-3.98,6.14-6.14,11.16-6.14,7.74,0,11.79,5.72,10.39,13.67l-3.63,20.57h-3.84l3.49-19.88c1.05-6.14-1.81-10.46-7.74-10.46s-10.04,4.11-11.23,10.04l-3.56,20.29h-3.98l5.93-33.55h3.98l-.98,5.44Z"/>
    <path class="cls-1" d="M950.22,225.81c-2.02-1.6-4.25-2.58-7.11-2.58-4.6,0-7.32,2.58-7.32,5.86,0,1.88.91,3,2.65,4.25l5.44,3.91c3.14,2.23,4.32,4.53,4.32,7.39,0,5.86-5.02,9.9-12.06,9.9-3.77,0-6.83-1.19-8.51-2.23l.84-4.25c1.67,1.4,4.18,2.93,7.74,2.93,4.88,0,7.81-2.72,7.81-6.07,0-1.74-.7-3.21-3-4.81l-5.72-4.04c-2.51-1.74-3.7-3.98-3.7-6.77,0-5.02,4.04-9.69,11.72-9.69,3.21,0,6.07.91,7.67,1.95l-.77,4.25Z"/>
  </g>
  <g>
    <g>
      <path class="cls-1" d="M202.24,192.61v-90.13h21.74v69.23h30.77v20.9h-52.51Z"/>
      <path class="cls-1" d="M278.16,123.56h-21.07v-21.07h63.71v21.07h-20.9v69.06h-21.74v-69.06Z"/>
      <path class="cls-1" d="M336.19,192.61v-90.13h52.51v21.07h-30.77v13.04h28.09v21.07h-28.09v14.05h30.77v20.9h-52.51Z"/>
      <path class="cls-1" d="M408.59,102.49h33.11c17.89,0,30.27,9.7,30.27,26.75,0,12.71-7.19,20.07-15.38,22.57,11.37,6.35,17.22,22.24,18.89,40.8h-22.57c-2.84-18.39-8.86-31.94-19.73-31.94h-2.84v31.94h-21.74v-90.13ZM441.03,123.56h-10.7v16.22h10.7c4.85,0,8.53-2.84,8.53-8.19s-3.68-8.03-8.53-8.03Z"/>
      <path class="cls-1" d="M514.44,145.46v47.15h-21.74v-78.42l-6.19-10.2v-1.5h25.58l34.61,52.34v-52.34h21.74v90.13h-21.74l-32.27-47.15Z"/>
      <path class="cls-1" d="M691.2,123.56h-21.07v-21.07h63.71v21.07h-20.9v69.06h-21.74v-69.06Z"/>
      <path class="cls-1" d="M749.22,102.49h21.74v90.13h-21.74v-90.13Z"/>
      <path class="cls-1" d="M782.83,102.49h24.25l21.07,65.05,20.9-65.05h24.25l-32.94,90.13h-24.41l-33.11-90.13Z"/>
      <path class="cls-1" d="M637.85,102.49h-30.41v1.5l3.49,5.74-30.6,82.88h24.25l5.69-16.89h30.59l5.85,16.89h24.25l-33.11-90.13ZM617.61,154.82l8.03-23.9,8.2,23.9h-16.23Z"/>
      <polygon class="cls-1" points="189.42 192.62 152.95 192.62 144.15 167.21 133.59 135.77 121.26 99.81 109.19 139.35 121.26 139.35 121.26 163.84 98.13 163.84 89.58 192.62 53.11 192.62 62.49 163.84 31.25 163.84 31.25 139.35 74.09 139.35 99.23 68.2 93.83 59.31 93.83 57.06 103.14 57.06 103.14 57.1 103.15 57.06 139.63 57.06 189.42 192.62"/>
      <polygon class="cls-1" points="966.64 174.6 945.87 174.6 952.1 193.74 927.86 193.74 922.17 174.6 906.79 174.6 906.79 158.33 914.82 158.33 906.79 132.04 898.59 155.94 891.57 176.85 885.72 193.74 861.47 193.74 892.89 108.21 891.01 105.11 891.01 102.49 918.83 102.49 921.44 111.01 938.15 158.33 966.64 158.33 966.64 174.6"/>
    </g>
    <path class="cls-1" d="M971.91,188.55c0,2.91-2.28,5.19-5.26,5.19s-5.29-2.28-5.29-5.19,2.35-5.13,5.29-5.13,5.26,2.28,5.26,5.13ZM962.68,188.55c0,2.28,1.69,4.1,4.01,4.1s3.91-1.81,3.91-4.07-1.66-4.13-3.94-4.13-3.97,1.85-3.97,4.1ZM965.84,191.24h-1.19v-5.13c.47-.09,1.13-.16,1.97-.16.97,0,1.41.16,1.78.38.28.22.5.63.5,1.13,0,.56-.44,1-1.06,1.19v.06c.5.19.78.56.94,1.25.16.78.25,1.1.38,1.28h-1.28c-.16-.19-.25-.66-.41-1.25-.09-.56-.41-.81-1.06-.81h-.56v2.07ZM965.87,188.33h.56c.66,0,1.19-.22,1.19-.75,0-.47-.34-.78-1.09-.78-.31,0-.53.03-.66.06v1.47Z"/>
  </g>
</svg>